<svg width="18" height="20" viewBox="0 0 18 20" fill="none" xmlns="http://www.w3.org/2000/svg">
<path fill-rule="evenodd" clip-rule="evenodd" d="M9.25197 1.64493C9.97821 0.756184 11.2245 0.0736885 12.2907 -6.10352e-05C12.4694 1.21493 11.9757 2.40492 11.3232 3.24617C10.6257 4.14991 9.42197 4.84866 8.25698 4.81241C8.04448 3.64866 8.58947 2.45117 9.25197 1.64493ZM12.6832 4.68116C14.0419 4.68116 15.4807 5.42615 16.5044 6.70989C13.1482 8.56113 13.6919 13.3836 17.0832 14.6748C16.6169 15.7148 16.3932 16.1786 15.7919 17.0998C14.9532 18.3848 13.7719 19.9861 12.3057 19.9973C11.703 20.0037 11.3076 19.8212 10.8812 19.6246C10.3871 19.3966 9.85137 19.1494 8.90322 19.1548C7.96028 19.1595 7.41601 19.4036 6.9151 19.6282C6.47775 19.8243 6.07346 20.0056 5.46574 19.9998C4.00075 19.9873 2.88076 18.5423 2.04202 17.2573C-0.301717 13.6661 -0.549215 9.44987 0.897025 7.20739C1.92577 5.6149 3.54826 4.68366 5.072 4.68366C5.8841 4.68366 6.53862 4.91833 7.16234 5.14197C7.73002 5.34551 8.2722 5.5399 8.88447 5.5399C9.45102 5.5399 9.91682 5.36243 10.4249 5.16884C11.0345 4.9366 11.7049 4.68116 12.6832 4.68116Z" fill="#191826"/>
</svg>
